<?xml version="1.0" encoding="UTF-8" standalone="no"?>
<svg xmlns:dc="http://purl.org/dc/elements/1.1/" xmlns:cc="http://creativecommons.org/ns#" xmlns:rdf="http://www.w3.org/1999/02/22-rdf-syntax-ns#" xmlns:svg="http://www.w3.org/2000/svg" xmlns="http://www.w3.org/2000/svg" xmlns:sodipodi="http://sodipodi.sourceforge.net/DTD/sodipodi-0.dtd" xmlns:inkscape="http://www.inkscape.org/namespaces/inkscape" version="1.1" width="45" height="45" id="svg2" inkscape:version="0.48.3.1 r9886" sodipodi:docname="Chess_qDd45.svg">
  <metadata id="metadata38">
    <rdf:RDF>
      <cc:Work rdf:about="">
        <dc:format>image/svg+xml</dc:format>
        <dc:type rdf:resource="http://purl.org/dc/dcmitype/StillImage"/>
      </cc:Work>
    </rdf:RDF>
  </metadata>
  <defs id="defs36"/>
  <sodipodi:namedview pagecolor="#ffffff" bordercolor="#666666" borderopacity="1" objecttolerance="10" gridtolerance="10" guidetolerance="10" inkscape:pageopacity="0" inkscape:pageshadow="2" inkscape:window-width="640" inkscape:window-height="480" id="namedview34" showgrid="false" inkscape:zoom="5.2444444" inkscape:cx="22.5" inkscape:cy="22.5" inkscape:window-x="9" inkscape:window-y="150" inkscape:window-maximized="0" inkscape:current-layer="svg2"/>
  <g style="opacity:1; fill:000000; fill-opacity:1; fill-rule:evenodd; stroke:#000000; stroke-width:1.5; stroke-linecap:round;stroke-linejoin:round;stroke-miterlimit:4; stroke-dasharray:none; stroke-opacity:1;" id="g4">
    <rect x="0" y="0" width="45" height="45" style="fill:#d18b47;stroke:none;stroke-opacity:1" id="rect6"/>
    <g style="fill:#000000; stroke:none;" id="g8">
      <circle cx="6" cy="12" r="2.75" id="circle10"/>
      <circle cx="14" cy="9" r="2.75" id="circle12"/>
      <circle cx="22.5" cy="8" r="2.75" id="circle14"/>
      <circle cx="31" cy="9" r="2.75" id="circle16"/>
      <circle cx="39" cy="12" r="2.75" id="circle18"/>
    </g>
    <path d="M 9,26 C 17.5,24.5 30,24.5 36,26 L 38.5,13.5 L 31,25 L 30.7,10.9 L 25.5,24.5 L 22.5,10 L 19.5,24.5 L 14.3,10.9 L 14,25 L 6.5,13.5 L 9,26 z" style="stroke-linecap:butt; stroke:#000000;" id="path20"/>
    <path d="M 9,26 C 9,28 10.5,28 11.5,30 C 12.5,31.5 12.5,31 12,33.5 C 10.5,34.5 10.5,36 10.5,36 C 9,37.5 11,38.5 11,38.5 C 17.5,39.5 27.5,39.5 34,38.5 C 34,38.5 35.5,37.5 34,36 C 34,36 34.5,34.5 33,33.5 C 32.5,31 32.5,31.5 33.5,30 C 34.5,28 36,28 36,26 C 27.5,24.5 17.5,24.5 9,26 z" style="stroke-linecap:butt;" id="path22"/>
    <path d="M 11,38.5 A 35,35 1 0 0 34,38.5" style="fill:none; stroke:#000000; stroke-linecap:butt;" id="path24"/>
    <path d="M 11,29 A 35,35 1 0 1 34,29" style="fill:none; stroke:#ffffff;" id="path26"/>
    <path d="M 12.5,31.5 L 32.5,31.5" style="fill:none; stroke:#ffffff;" id="path28"/>
    <path d="M 11.5,34.5 A 35,35 1 0 0 33.5,34.5" style="fill:none; stroke:#ffffff;" id="path30"/>
    <path d="M 10.5,37.5 A 35,35 1 0 0 34.5,37.5" style="fill:none; stroke:#ffffff;" id="path32"/>
  </g>
  <rect style="fill:none;stroke:#ff0000;stroke-width:3;stroke-miterlimit:4;stroke-opacity:1;stroke-dasharray:none" id="rect3757" width="42" height="42" x="1.5" y="1.5"/>
</svg>