<?xml version="1.0" encoding="UTF-8" standalone="no"?>
<svg xmlns:dc="http://purl.org/dc/elements/1.1/" xmlns:cc="http://creativecommons.org/ns#" xmlns:rdf="http://www.w3.org/1999/02/22-rdf-syntax-ns#" xmlns:svg="http://www.w3.org/2000/svg" xmlns="http://www.w3.org/2000/svg" xmlns:sodipodi="http://sodipodi.sourceforge.net/DTD/sodipodi-0.dtd" xmlns:inkscape="http://www.inkscape.org/namespaces/inkscape" version="1.1" width="45" height="45" id="svg2" inkscape:version="0.48.3.1 r9886" sodipodi:docname="Chess_rLd45.svg">
  <metadata id="metadata26">
    <rdf:RDF>
      <cc:Work rdf:about="">
        <dc:format>image/svg+xml</dc:format>
        <dc:type rdf:resource="http://purl.org/dc/dcmitype/StillImage"/>
      </cc:Work>
    </rdf:RDF>
  </metadata>
  <defs id="defs24"/>
  <sodipodi:namedview pagecolor="#ffffff" bordercolor="#666666" borderopacity="1" objecttolerance="10" gridtolerance="10" guidetolerance="10" inkscape:pageopacity="0" inkscape:pageshadow="2" inkscape:window-width="640" inkscape:window-height="480" id="namedview22" showgrid="false" inkscape:zoom="5.2444444" inkscape:cx="22.5" inkscape:cy="22.5" inkscape:window-x="0" inkscape:window-y="0" inkscape:window-maximized="0" inkscape:current-layer="svg2"/>
  <g style="opacity:1; fill:#ffffff; fill-opacity:1; fill-rule:evenodd; stroke:#000000; stroke-width:1.5; stroke-linecap:round;stroke-linejoin:round;stroke-miterlimit:4; stroke-dasharray:none; stroke-opacity:1;" id="g4">
    <rect x="0" y="0" width="45" height="45" style="fill:#d18b47; stroke:none;" id="rect6"/>
    <path d="M 9,39 L 36,39 L 36,36 L 9,36 L 9,39 z " style="stroke-linecap:butt;" id="path8"/>
    <path d="M 12,36 L 12,32 L 33,32 L 33,36 L 12,36 z " style="stroke-linecap:butt;" id="path10"/>
    <path d="M 11,14 L 11,9 L 15,9 L 15,11 L 20,11 L 20,9 L 25,9 L 25,11 L 30,11 L 30,9 L 34,9 L 34,14" style="stroke-linecap:butt;" id="path12"/>
    <path d="M 34,14 L 31,17 L 14,17 L 11,14" id="path14"/>
    <path d="M 31,17 L 31,29.5 L 14,29.5 L 14,17" style="stroke-linecap:butt; stroke-linejoin:miter;" id="path16"/>
    <path d="M 31,29.5 L 32.5,32 L 12.5,32 L 14,29.5" id="path18"/>
    <path d="M 11,14 L 34,14" style="fill:none; stroke:#000000; stroke-linejoin:miter;" id="path20"/>
  </g>
  <rect style="fill:none;stroke:#ff0000;stroke-width:3;stroke-miterlimit:4;stroke-opacity:1;stroke-dasharray:none" id="rect3757" width="42" height="42" x="1.5" y="1.5"/>
</svg>